<svg xmlns="http://www.w3.org/2000/svg" xmlns:xlink="http://www.w3.org/1999/xlink" width="61.999" height="61.998" viewBox="0 0 61.999 61.998">
  <defs>
    <linearGradient id="linear-gradient" x1="0.5" x2="0.5" y2="1" gradientUnits="objectBoundingBox">
      <stop offset="0" stop-color="#81ffd8"/>
      <stop offset="1" stop-color="#44b7b2"/>
    </linearGradient>
    <filter id="Icon_awesome-book-reader" x="0" y="0" width="61.999" height="61.998" filterUnits="userSpaceOnUse">
      <feOffset input="SourceAlpha"/>
      <feGaussianBlur stdDeviation="2" result="blur"/>
      <feFlood flood-opacity="0.161"/>
      <feComposite operator="in" in2="blur"/>
      <feComposite in="SourceGraphic"/>
    </filter>
  </defs>
  <g transform="matrix(1, 0, 0, 1, 0, 0)" filter="url(#Icon_awesome-book-reader)">
    <path id="Icon_awesome-book-reader-2" data-name="Icon awesome-book-reader" d="M34.374,9.375A9.375,9.375,0,1,0,25,18.749,9.375,9.375,0,0,0,34.374,9.375ZM22.811,23.544C17.017,20,7.633,19.023,2.91,18.754A2.7,2.7,0,0,0,0,21.4V43.157A2.686,2.686,0,0,0,2.587,45.8c4.264.224,12.889,1.043,18.851,4.046a1.359,1.359,0,0,0,2-1.159V24.663a1.3,1.3,0,0,0-.627-1.119Zm24.278-4.79c-4.722.268-14.107,1.243-19.9,4.79a1.324,1.324,0,0,0-.626,1.136v24a1.363,1.363,0,0,0,2.006,1.162c5.961-3,14.582-3.819,18.844-4.043A2.687,2.687,0,0,0,50,43.159V21.4A2.7,2.7,0,0,0,47.088,18.754Z" transform="translate(6 6)" fill="url(#linear-gradient)"/>
  </g>
</svg>
