<svg xmlns="http://www.w3.org/2000/svg" width="87.301" height="35" viewBox="0 0 87.301 35">
  <g id="Grupo_3" data-name="Grupo 3" transform="translate(-1244 -40.063)">
    <path id="Icon_awesome-globe" data-name="Icon awesome-globe" d="M23.75,11.288C22.726,4.987,20.313.563,17.5.563s-5.223,4.424-6.246,10.726ZM10.728,18.063a44.221,44.221,0,0,0,.233,4.516H24.039a44.221,44.221,0,0,0,.233-4.516,44.221,44.221,0,0,0-.233-4.516H10.961A44.22,44.22,0,0,0,10.728,18.063Zm22.917-6.774A17.539,17.539,0,0,0,22.493,1.3c1.722,2.385,2.908,5.977,3.529,9.992ZM12.507,1.3A17.527,17.527,0,0,0,1.362,11.288H8.985c.614-4.015,1.8-7.607,3.522-9.992ZM34.4,13.546H26.3c.148,1.482.233,3,.233,4.516s-.085,3.034-.233,4.516h8.088A17.346,17.346,0,0,0,35,18.063,17.649,17.649,0,0,0,34.4,13.546ZM8.469,18.063c0-1.517.085-3.034.233-4.516H.607a17.1,17.1,0,0,0,0,9.032H8.7C8.554,21.1,8.469,19.58,8.469,18.063Zm2.788,6.774c1.023,6.3,3.437,10.726,6.246,10.726s5.223-4.424,6.246-10.726ZM22.5,34.829a17.556,17.556,0,0,0,11.151-9.992H26.029c-.621,4.015-1.807,7.607-3.529,9.992ZM1.362,24.837a17.539,17.539,0,0,0,11.151,9.992c-1.722-2.385-2.908-5.977-3.529-9.992H1.362Z" transform="translate(1244 39.5)" fill="#707070"/>
    <text id="EN" transform="translate(1289 63.063)" fill="#707070" font-size="17" font-family="Metropolis-Medium, Metropolis" font-weight="500"><tspan x="0" y="0">EN</tspan></text>
    <path id="Icon_ionic-ios-arrow-down" data-name="Icon ionic-ios-arrow-down" d="M12.34,16.16,16.991,11.5a.875.875,0,0,1,1.242,0,.886.886,0,0,1,0,1.245l-5.27,5.274a.877.877,0,0,1-1.212.026l-5.307-5.3a.879.879,0,0,1,1.242-1.245Z" transform="translate(1312.813 42.799)" fill="#707070"/>
  </g>
</svg>
